<mxfile host="app.diagrams.net" modified="2023-09-22T15:02:15.356Z" agent="Mozilla/5.0 (Windows NT 10.0; Win64; x64) AppleWebKit/537.36 (KHTML, like Gecko) Chrome/116.0.0.0 Safari/537.36" etag="KxPuIpkG6ieGRB4eNA9F" version="21.8.0" type="device">
  <diagram name="Halaman-1" id="yt1pmwbH7Z3dsnE8mepV">
    <mxGraphModel dx="568" dy="306" grid="1" gridSize="10" guides="1" tooltips="1" connect="1" arrows="1" fold="1" page="1" pageScale="1" pageWidth="827" pageHeight="1169" math="0" shadow="0">
      <root>
        <mxCell id="0" />
        <mxCell id="1" parent="0" />
        <mxCell id="gjSoDwA15sYTjZ9oQmSF-38" value="" style="edgeStyle=orthogonalEdgeStyle;rounded=0;orthogonalLoop=1;jettySize=auto;html=1;" parent="1" source="gjSoDwA15sYTjZ9oQmSF-1" target="gjSoDwA15sYTjZ9oQmSF-3" edge="1">
          <mxGeometry relative="1" as="geometry" />
        </mxCell>
        <mxCell id="gjSoDwA15sYTjZ9oQmSF-1" value="main" style="strokeWidth=2;html=1;shape=mxgraph.flowchart.terminator;whiteSpace=wrap;" parent="1" vertex="1">
          <mxGeometry x="365" y="80" width="100" height="60" as="geometry" />
        </mxCell>
        <mxCell id="gjSoDwA15sYTjZ9oQmSF-2" value="KALKULATOR USER FRIENDLY" style="text;html=1;strokeColor=none;fillColor=none;align=center;verticalAlign=middle;whiteSpace=wrap;rounded=0;" parent="1" vertex="1">
          <mxGeometry x="320" y="20" width="190" height="30" as="geometry" />
        </mxCell>
        <mxCell id="gjSoDwA15sYTjZ9oQmSF-37" value="" style="edgeStyle=orthogonalEdgeStyle;rounded=0;orthogonalLoop=1;jettySize=auto;html=1;" parent="1" source="gjSoDwA15sYTjZ9oQmSF-3" target="gjSoDwA15sYTjZ9oQmSF-4" edge="1">
          <mxGeometry relative="1" as="geometry" />
        </mxCell>
        <mxCell id="gjSoDwA15sYTjZ9oQmSF-3" value="real a" style="shape=internalStorage;whiteSpace=wrap;html=1;dx=15;dy=15;rounded=1;arcSize=8;strokeWidth=2;" parent="1" vertex="1">
          <mxGeometry x="355" y="180" width="120" height="70" as="geometry" />
        </mxCell>
        <mxCell id="gjSoDwA15sYTjZ9oQmSF-36" value="" style="edgeStyle=orthogonalEdgeStyle;rounded=0;orthogonalLoop=1;jettySize=auto;html=1;" parent="1" source="gjSoDwA15sYTjZ9oQmSF-4" target="gjSoDwA15sYTjZ9oQmSF-5" edge="1">
          <mxGeometry relative="1" as="geometry" />
        </mxCell>
        <mxCell id="gjSoDwA15sYTjZ9oQmSF-4" value="real b" style="shape=internalStorage;whiteSpace=wrap;html=1;dx=15;dy=15;rounded=1;arcSize=8;strokeWidth=2;" parent="1" vertex="1">
          <mxGeometry x="355" y="290" width="120" height="70" as="geometry" />
        </mxCell>
        <mxCell id="gjSoDwA15sYTjZ9oQmSF-35" value="" style="edgeStyle=orthogonalEdgeStyle;rounded=0;orthogonalLoop=1;jettySize=auto;html=1;" parent="1" source="gjSoDwA15sYTjZ9oQmSF-5" target="gjSoDwA15sYTjZ9oQmSF-6" edge="1">
          <mxGeometry relative="1" as="geometry" />
        </mxCell>
        <mxCell id="gjSoDwA15sYTjZ9oQmSF-5" value="input a" style="shape=parallelogram;html=1;strokeWidth=2;perimeter=parallelogramPerimeter;whiteSpace=wrap;rounded=1;arcSize=12;size=0.23;" parent="1" vertex="1">
          <mxGeometry x="345" y="400" width="140" height="60" as="geometry" />
        </mxCell>
        <mxCell id="gjSoDwA15sYTjZ9oQmSF-34" value="" style="edgeStyle=orthogonalEdgeStyle;rounded=0;orthogonalLoop=1;jettySize=auto;html=1;" parent="1" source="gjSoDwA15sYTjZ9oQmSF-6" target="gjSoDwA15sYTjZ9oQmSF-7" edge="1">
          <mxGeometry relative="1" as="geometry" />
        </mxCell>
        <mxCell id="gjSoDwA15sYTjZ9oQmSF-6" value="input b" style="shape=parallelogram;html=1;strokeWidth=2;perimeter=parallelogramPerimeter;whiteSpace=wrap;rounded=1;arcSize=12;size=0.23;" parent="1" vertex="1">
          <mxGeometry x="345" y="500" width="140" height="60" as="geometry" />
        </mxCell>
        <mxCell id="gjSoDwA15sYTjZ9oQmSF-33" value="" style="edgeStyle=orthogonalEdgeStyle;rounded=0;orthogonalLoop=1;jettySize=auto;html=1;" parent="1" source="gjSoDwA15sYTjZ9oQmSF-7" target="gjSoDwA15sYTjZ9oQmSF-8" edge="1">
          <mxGeometry relative="1" as="geometry" />
        </mxCell>
        <mxCell id="gjSoDwA15sYTjZ9oQmSF-7" value="penjumlahan" style="shape=internalStorage;whiteSpace=wrap;html=1;dx=15;dy=15;rounded=1;arcSize=8;strokeWidth=2;" parent="1" vertex="1">
          <mxGeometry x="340" y="610" width="150" height="70" as="geometry" />
        </mxCell>
        <mxCell id="gjSoDwA15sYTjZ9oQmSF-32" value="" style="edgeStyle=orthogonalEdgeStyle;rounded=0;orthogonalLoop=1;jettySize=auto;html=1;" parent="1" source="gjSoDwA15sYTjZ9oQmSF-8" target="gjSoDwA15sYTjZ9oQmSF-9" edge="1">
          <mxGeometry relative="1" as="geometry" />
        </mxCell>
        <mxCell id="gjSoDwA15sYTjZ9oQmSF-8" value="pengurangan" style="shape=internalStorage;whiteSpace=wrap;html=1;dx=15;dy=15;rounded=1;arcSize=8;strokeWidth=2;" parent="1" vertex="1">
          <mxGeometry x="340" y="740" width="150" height="70" as="geometry" />
        </mxCell>
        <mxCell id="gjSoDwA15sYTjZ9oQmSF-30" value="" style="edgeStyle=orthogonalEdgeStyle;rounded=0;orthogonalLoop=1;jettySize=auto;html=1;" parent="1" source="gjSoDwA15sYTjZ9oQmSF-9" target="gjSoDwA15sYTjZ9oQmSF-10" edge="1">
          <mxGeometry relative="1" as="geometry" />
        </mxCell>
        <mxCell id="gjSoDwA15sYTjZ9oQmSF-9" value="perkalian" style="shape=internalStorage;whiteSpace=wrap;html=1;dx=15;dy=15;rounded=1;arcSize=8;strokeWidth=2;" parent="1" vertex="1">
          <mxGeometry x="340" y="870" width="150" height="70" as="geometry" />
        </mxCell>
        <mxCell id="gjSoDwA15sYTjZ9oQmSF-29" value="" style="edgeStyle=orthogonalEdgeStyle;rounded=0;orthogonalLoop=1;jettySize=auto;html=1;" parent="1" source="gjSoDwA15sYTjZ9oQmSF-10" target="gjSoDwA15sYTjZ9oQmSF-11" edge="1">
          <mxGeometry relative="1" as="geometry" />
        </mxCell>
        <mxCell id="gjSoDwA15sYTjZ9oQmSF-10" value="pembagian" style="shape=internalStorage;whiteSpace=wrap;html=1;dx=15;dy=15;rounded=1;arcSize=8;strokeWidth=2;" parent="1" vertex="1">
          <mxGeometry x="340" y="990" width="150" height="70" as="geometry" />
        </mxCell>
        <mxCell id="gjSoDwA15sYTjZ9oQmSF-15" value="" style="edgeStyle=orthogonalEdgeStyle;rounded=0;orthogonalLoop=1;jettySize=auto;html=1;" parent="1" source="gjSoDwA15sYTjZ9oQmSF-11" target="gjSoDwA15sYTjZ9oQmSF-14" edge="1">
          <mxGeometry relative="1" as="geometry" />
        </mxCell>
        <mxCell id="gjSoDwA15sYTjZ9oQmSF-11" value="penjumlahan a+b" style="rounded=1;whiteSpace=wrap;html=1;" parent="1" vertex="1">
          <mxGeometry x="340" y="1100" width="150" height="60" as="geometry" />
        </mxCell>
        <mxCell id="gjSoDwA15sYTjZ9oQmSF-26" value="" style="edgeStyle=orthogonalEdgeStyle;rounded=0;orthogonalLoop=1;jettySize=auto;html=1;" parent="1" source="gjSoDwA15sYTjZ9oQmSF-12" target="gjSoDwA15sYTjZ9oQmSF-17" edge="1">
          <mxGeometry relative="1" as="geometry" />
        </mxCell>
        <mxCell id="gjSoDwA15sYTjZ9oQmSF-12" value="pembagian a/b" style="rounded=1;whiteSpace=wrap;html=1;" parent="1" vertex="1">
          <mxGeometry x="340" y="1380" width="150" height="60" as="geometry" />
        </mxCell>
        <mxCell id="gjSoDwA15sYTjZ9oQmSF-16" value="" style="edgeStyle=orthogonalEdgeStyle;rounded=0;orthogonalLoop=1;jettySize=auto;html=1;" parent="1" source="gjSoDwA15sYTjZ9oQmSF-13" target="gjSoDwA15sYTjZ9oQmSF-12" edge="1">
          <mxGeometry relative="1" as="geometry" />
        </mxCell>
        <mxCell id="gjSoDwA15sYTjZ9oQmSF-13" value="perkalian a*b" style="rounded=1;whiteSpace=wrap;html=1;" parent="1" vertex="1">
          <mxGeometry x="340" y="1290" width="150" height="60" as="geometry" />
        </mxCell>
        <mxCell id="gjSoDwA15sYTjZ9oQmSF-28" value="" style="edgeStyle=orthogonalEdgeStyle;rounded=0;orthogonalLoop=1;jettySize=auto;html=1;" parent="1" source="gjSoDwA15sYTjZ9oQmSF-14" target="gjSoDwA15sYTjZ9oQmSF-13" edge="1">
          <mxGeometry relative="1" as="geometry" />
        </mxCell>
        <mxCell id="gjSoDwA15sYTjZ9oQmSF-14" value="pengurangan a-b" style="rounded=1;whiteSpace=wrap;html=1;" parent="1" vertex="1">
          <mxGeometry x="340" y="1190" width="150" height="60" as="geometry" />
        </mxCell>
        <mxCell id="gjSoDwA15sYTjZ9oQmSF-27" value="" style="edgeStyle=orthogonalEdgeStyle;rounded=0;orthogonalLoop=1;jettySize=auto;html=1;" parent="1" source="gjSoDwA15sYTjZ9oQmSF-17" target="gjSoDwA15sYTjZ9oQmSF-20" edge="1">
          <mxGeometry relative="1" as="geometry" />
        </mxCell>
        <mxCell id="gjSoDwA15sYTjZ9oQmSF-17" value="output &quot;hasil dari penjumlahan &quot; a+b" style="shape=parallelogram;html=1;strokeWidth=2;perimeter=parallelogramPerimeter;whiteSpace=wrap;rounded=1;arcSize=12;size=0.23;" parent="1" vertex="1">
          <mxGeometry x="260" y="1470" width="310" height="70" as="geometry" />
        </mxCell>
        <mxCell id="gjSoDwA15sYTjZ9oQmSF-22" value="" style="edgeStyle=orthogonalEdgeStyle;rounded=0;orthogonalLoop=1;jettySize=auto;html=1;" parent="1" source="gjSoDwA15sYTjZ9oQmSF-18" target="gjSoDwA15sYTjZ9oQmSF-21" edge="1">
          <mxGeometry relative="1" as="geometry" />
        </mxCell>
        <mxCell id="gjSoDwA15sYTjZ9oQmSF-18" value="output &quot;hasil dari pembagian &quot; a/b" style="shape=parallelogram;html=1;strokeWidth=2;perimeter=parallelogramPerimeter;whiteSpace=wrap;rounded=1;arcSize=12;size=0.23;" parent="1" vertex="1">
          <mxGeometry x="260" y="1790" width="310" height="70" as="geometry" />
        </mxCell>
        <mxCell id="gjSoDwA15sYTjZ9oQmSF-24" value="" style="edgeStyle=orthogonalEdgeStyle;rounded=0;orthogonalLoop=1;jettySize=auto;html=1;" parent="1" source="gjSoDwA15sYTjZ9oQmSF-19" target="gjSoDwA15sYTjZ9oQmSF-18" edge="1">
          <mxGeometry relative="1" as="geometry" />
        </mxCell>
        <mxCell id="gjSoDwA15sYTjZ9oQmSF-19" value="output &quot;hasil dari perkalian &quot; a*b" style="shape=parallelogram;html=1;strokeWidth=2;perimeter=parallelogramPerimeter;whiteSpace=wrap;rounded=1;arcSize=12;size=0.23;" parent="1" vertex="1">
          <mxGeometry x="260" y="1683.5" width="310" height="70" as="geometry" />
        </mxCell>
        <mxCell id="gjSoDwA15sYTjZ9oQmSF-25" value="" style="edgeStyle=orthogonalEdgeStyle;rounded=0;orthogonalLoop=1;jettySize=auto;html=1;" parent="1" source="gjSoDwA15sYTjZ9oQmSF-20" target="gjSoDwA15sYTjZ9oQmSF-19" edge="1">
          <mxGeometry relative="1" as="geometry" />
        </mxCell>
        <mxCell id="gjSoDwA15sYTjZ9oQmSF-20" value="output &quot;hasil dari pengurangan &quot; a-b" style="shape=parallelogram;html=1;strokeWidth=2;perimeter=parallelogramPerimeter;whiteSpace=wrap;rounded=1;arcSize=12;size=0.23;" parent="1" vertex="1">
          <mxGeometry x="260" y="1580" width="310" height="70" as="geometry" />
        </mxCell>
        <mxCell id="gjSoDwA15sYTjZ9oQmSF-21" value="end" style="strokeWidth=2;html=1;shape=mxgraph.flowchart.terminator;whiteSpace=wrap;" parent="1" vertex="1">
          <mxGeometry x="365" y="1920" width="100" height="60" as="geometry" />
        </mxCell>
      </root>
    </mxGraphModel>
  </diagram>
</mxfile>
